<mxfile host="app.diagrams.net" agent="Mozilla/5.0 (Windows NT 10.0; Win64; x64) AppleWebKit/537.36 (KHTML, like Gecko) Chrome/140.0.0.0 Safari/537.36 Edg/140.0.0.0" version="28.2.2">
  <diagram name="Page-1" id="TSOyvvwVqCVR8OjIZzSi">
    <mxGraphModel grid="1" page="1" gridSize="10" guides="1" tooltips="1" connect="1" arrows="1" fold="1" pageScale="1" pageWidth="850" pageHeight="1100" math="0" shadow="0">
      <root>
        <mxCell id="0" />
        <mxCell id="1" parent="0" />
        <mxCell id="zqjJxMXIMrwAx4-Eq1Zg-1" value="Branch" style="html=1;whiteSpace=wrap;" vertex="1" parent="1">
          <mxGeometry x="173.75" y="240" width="110" height="50" as="geometry" />
        </mxCell>
        <mxCell id="zqjJxMXIMrwAx4-Eq1Zg-2" value="Employee" style="html=1;whiteSpace=wrap;" vertex="1" parent="1">
          <mxGeometry x="730" y="240" width="110" height="50" as="geometry" />
        </mxCell>
        <mxCell id="zqjJxMXIMrwAx4-Eq1Zg-3" value="Customer" style="html=1;whiteSpace=wrap;" vertex="1" parent="1">
          <mxGeometry x="723.75" y="475" width="110" height="50" as="geometry" />
        </mxCell>
        <mxCell id="zqjJxMXIMrwAx4-Eq1Zg-5" value="Account" style="html=1;whiteSpace=wrap;" vertex="1" parent="1">
          <mxGeometry x="165" y="470" width="110" height="50" as="geometry" />
        </mxCell>
        <mxCell id="zqjJxMXIMrwAx4-Eq1Zg-11" value="Phone" style="ellipse;shape=doubleEllipse;whiteSpace=wrap;html=1;" vertex="1" parent="1">
          <mxGeometry x="11.25" y="150" width="100" height="50" as="geometry" />
        </mxCell>
        <mxCell id="zqjJxMXIMrwAx4-Eq1Zg-12" value="Street" style="ellipse;whiteSpace=wrap;html=1;" vertex="1" parent="1">
          <mxGeometry x="120" y="30" width="77.5" height="50" as="geometry" />
        </mxCell>
        <mxCell id="zqjJxMXIMrwAx4-Eq1Zg-13" value="District" style="ellipse;whiteSpace=wrap;html=1;" vertex="1" parent="1">
          <mxGeometry x="206.25" y="30" width="77.5" height="50" as="geometry" />
        </mxCell>
        <mxCell id="zqjJxMXIMrwAx4-Eq1Zg-14" value="City" style="ellipse;whiteSpace=wrap;html=1;" vertex="1" parent="1">
          <mxGeometry x="310" y="30" width="77.5" height="50" as="geometry" />
        </mxCell>
        <mxCell id="zqjJxMXIMrwAx4-Eq1Zg-15" value="Region" style="ellipse;whiteSpace=wrap;html=1;" vertex="1" parent="1">
          <mxGeometry x="370" y="80" width="77.5" height="50" as="geometry" />
        </mxCell>
        <mxCell id="zqjJxMXIMrwAx4-Eq1Zg-16" value="Address" style="ellipse;whiteSpace=wrap;html=1;" vertex="1" parent="1">
          <mxGeometry x="197.5" y="120" width="77.5" height="50" as="geometry" />
        </mxCell>
        <mxCell id="zqjJxMXIMrwAx4-Eq1Zg-17" value="Fax" style="ellipse;shape=doubleEllipse;whiteSpace=wrap;html=1;" vertex="1" parent="1">
          <mxGeometry x="10" y="220" width="100" height="50" as="geometry" />
        </mxCell>
        <mxCell id="zqjJxMXIMrwAx4-Eq1Zg-19" value="&lt;u&gt;Name&lt;/u&gt;" style="ellipse;whiteSpace=wrap;html=1;" vertex="1" parent="1">
          <mxGeometry x="128.75" y="160" width="77.5" height="50" as="geometry" />
        </mxCell>
        <mxCell id="zqjJxMXIMrwAx4-Eq1Zg-20" value="email" style="ellipse;whiteSpace=wrap;html=1;" vertex="1" parent="1">
          <mxGeometry x="270" y="170" width="77.5" height="50" as="geometry" />
        </mxCell>
        <mxCell id="zqjJxMXIMrwAx4-Eq1Zg-22" value="No." style="ellipse;whiteSpace=wrap;html=1;" vertex="1" parent="1">
          <mxGeometry x="22.5" y="50" width="77.5" height="50" as="geometry" />
        </mxCell>
        <mxCell id="zqjJxMXIMrwAx4-Eq1Zg-23" value="Num. Of Emp" style="ellipse;whiteSpace=wrap;html=1;align=center;dashed=1;" vertex="1" parent="1">
          <mxGeometry x="28.75" y="300" width="100" height="40" as="geometry" />
        </mxCell>
        <mxCell id="zqjJxMXIMrwAx4-Eq1Zg-26" value="" style="endArrow=none;html=1;rounded=0;entryX=0.5;entryY=1;entryDx=0;entryDy=0;exitX=0.5;exitY=0;exitDx=0;exitDy=0;" edge="1" parent="1" source="zqjJxMXIMrwAx4-Eq1Zg-1" target="zqjJxMXIMrwAx4-Eq1Zg-16">
          <mxGeometry width="50" height="50" relative="1" as="geometry">
            <mxPoint x="260" y="230" as="sourcePoint" />
            <mxPoint x="310" y="180" as="targetPoint" />
          </mxGeometry>
        </mxCell>
        <mxCell id="zqjJxMXIMrwAx4-Eq1Zg-27" value="" style="endArrow=none;html=1;rounded=0;entryX=1;entryY=1;entryDx=0;entryDy=0;exitX=0.5;exitY=0;exitDx=0;exitDy=0;" edge="1" parent="1" source="zqjJxMXIMrwAx4-Eq1Zg-1" target="zqjJxMXIMrwAx4-Eq1Zg-19">
          <mxGeometry width="50" height="50" relative="1" as="geometry">
            <mxPoint x="220" y="270" as="sourcePoint" />
            <mxPoint x="220" y="220" as="targetPoint" />
          </mxGeometry>
        </mxCell>
        <mxCell id="zqjJxMXIMrwAx4-Eq1Zg-28" value="" style="endArrow=none;html=1;rounded=0;entryX=0;entryY=0.5;entryDx=0;entryDy=0;" edge="1" parent="1" target="zqjJxMXIMrwAx4-Eq1Zg-20">
          <mxGeometry width="50" height="50" relative="1" as="geometry">
            <mxPoint x="230" y="240" as="sourcePoint" />
            <mxPoint x="270" y="210" as="targetPoint" />
          </mxGeometry>
        </mxCell>
        <mxCell id="zqjJxMXIMrwAx4-Eq1Zg-29" value="" style="endArrow=none;html=1;rounded=0;entryX=0.98;entryY=0.709;entryDx=0;entryDy=0;exitX=0;exitY=0.5;exitDx=0;exitDy=0;entryPerimeter=0;" edge="1" parent="1" source="zqjJxMXIMrwAx4-Eq1Zg-1" target="zqjJxMXIMrwAx4-Eq1Zg-17">
          <mxGeometry width="50" height="50" relative="1" as="geometry">
            <mxPoint x="150" y="310" as="sourcePoint" />
            <mxPoint x="150" y="260" as="targetPoint" />
          </mxGeometry>
        </mxCell>
        <mxCell id="zqjJxMXIMrwAx4-Eq1Zg-30" value="" style="endArrow=none;html=1;rounded=0;entryX=0.5;entryY=0;entryDx=0;entryDy=0;exitX=0;exitY=0.5;exitDx=0;exitDy=0;" edge="1" parent="1" source="zqjJxMXIMrwAx4-Eq1Zg-1" target="zqjJxMXIMrwAx4-Eq1Zg-23">
          <mxGeometry width="50" height="50" relative="1" as="geometry">
            <mxPoint x="120" y="290" as="sourcePoint" />
            <mxPoint x="120" y="240" as="targetPoint" />
          </mxGeometry>
        </mxCell>
        <mxCell id="zqjJxMXIMrwAx4-Eq1Zg-31" value="" style="endArrow=none;html=1;rounded=0;entryX=0.936;entryY=0.805;entryDx=0;entryDy=0;exitX=0;exitY=0.5;exitDx=0;exitDy=0;entryPerimeter=0;" edge="1" parent="1" source="zqjJxMXIMrwAx4-Eq1Zg-1" target="zqjJxMXIMrwAx4-Eq1Zg-11">
          <mxGeometry width="50" height="50" relative="1" as="geometry">
            <mxPoint x="110" y="230" as="sourcePoint" />
            <mxPoint x="110" y="180" as="targetPoint" />
          </mxGeometry>
        </mxCell>
        <mxCell id="zqjJxMXIMrwAx4-Eq1Zg-32" value="" style="endArrow=none;html=1;rounded=0;entryX=0.926;entryY=0.719;entryDx=0;entryDy=0;entryPerimeter=0;exitX=0.5;exitY=0;exitDx=0;exitDy=0;" edge="1" parent="1" source="zqjJxMXIMrwAx4-Eq1Zg-16" target="zqjJxMXIMrwAx4-Eq1Zg-22">
          <mxGeometry width="50" height="50" relative="1" as="geometry">
            <mxPoint x="210" y="200" as="sourcePoint" />
            <mxPoint x="210" y="150" as="targetPoint" />
          </mxGeometry>
        </mxCell>
        <mxCell id="zqjJxMXIMrwAx4-Eq1Zg-33" value="" style="endArrow=none;html=1;rounded=0;entryX=0.5;entryY=1;entryDx=0;entryDy=0;exitX=0.5;exitY=0;exitDx=0;exitDy=0;" edge="1" parent="1" source="zqjJxMXIMrwAx4-Eq1Zg-16" target="zqjJxMXIMrwAx4-Eq1Zg-12">
          <mxGeometry width="50" height="50" relative="1" as="geometry">
            <mxPoint x="250" y="290" as="sourcePoint" />
            <mxPoint x="250" y="240" as="targetPoint" />
          </mxGeometry>
        </mxCell>
        <mxCell id="zqjJxMXIMrwAx4-Eq1Zg-34" value="" style="endArrow=none;html=1;rounded=0;entryX=0.5;entryY=1;entryDx=0;entryDy=0;exitX=0.5;exitY=0;exitDx=0;exitDy=0;" edge="1" parent="1" source="zqjJxMXIMrwAx4-Eq1Zg-16" target="zqjJxMXIMrwAx4-Eq1Zg-13">
          <mxGeometry width="50" height="50" relative="1" as="geometry">
            <mxPoint x="260" y="160" as="sourcePoint" />
            <mxPoint x="260" y="110" as="targetPoint" />
          </mxGeometry>
        </mxCell>
        <mxCell id="zqjJxMXIMrwAx4-Eq1Zg-36" value="" style="endArrow=none;html=1;rounded=0;entryX=0;entryY=1;entryDx=0;entryDy=0;exitX=0.5;exitY=0;exitDx=0;exitDy=0;" edge="1" parent="1" source="zqjJxMXIMrwAx4-Eq1Zg-16" target="zqjJxMXIMrwAx4-Eq1Zg-14">
          <mxGeometry width="50" height="50" relative="1" as="geometry">
            <mxPoint x="300" y="200" as="sourcePoint" />
            <mxPoint x="300" y="150" as="targetPoint" />
          </mxGeometry>
        </mxCell>
        <mxCell id="zqjJxMXIMrwAx4-Eq1Zg-37" value="" style="endArrow=none;html=1;rounded=0;entryX=0;entryY=0.5;entryDx=0;entryDy=0;exitX=0.5;exitY=0;exitDx=0;exitDy=0;" edge="1" parent="1" source="zqjJxMXIMrwAx4-Eq1Zg-16" target="zqjJxMXIMrwAx4-Eq1Zg-15">
          <mxGeometry width="50" height="50" relative="1" as="geometry">
            <mxPoint x="340" y="220" as="sourcePoint" />
            <mxPoint x="340" y="170" as="targetPoint" />
          </mxGeometry>
        </mxCell>
        <mxCell id="zqjJxMXIMrwAx4-Eq1Zg-38" value="Phones" style="ellipse;shape=doubleEllipse;whiteSpace=wrap;html=1;" vertex="1" parent="1">
          <mxGeometry x="900" y="210" width="100" height="50" as="geometry" />
        </mxCell>
        <mxCell id="zqjJxMXIMrwAx4-Eq1Zg-40" value="Street" style="ellipse;whiteSpace=wrap;html=1;" vertex="1" parent="1">
          <mxGeometry x="667.5" y="40" width="77.5" height="50" as="geometry" />
        </mxCell>
        <mxCell id="zqjJxMXIMrwAx4-Eq1Zg-41" value="District" style="ellipse;whiteSpace=wrap;html=1;" vertex="1" parent="1">
          <mxGeometry x="753.75" y="40" width="77.5" height="50" as="geometry" />
        </mxCell>
        <mxCell id="zqjJxMXIMrwAx4-Eq1Zg-42" value="City" style="ellipse;whiteSpace=wrap;html=1;" vertex="1" parent="1">
          <mxGeometry x="840" y="40" width="77.5" height="50" as="geometry" />
        </mxCell>
        <mxCell id="zqjJxMXIMrwAx4-Eq1Zg-43" value="Address" style="ellipse;whiteSpace=wrap;html=1;" vertex="1" parent="1">
          <mxGeometry x="745" y="130" width="77.5" height="50" as="geometry" />
        </mxCell>
        <mxCell id="zqjJxMXIMrwAx4-Eq1Zg-44" value="No." style="ellipse;whiteSpace=wrap;html=1;" vertex="1" parent="1">
          <mxGeometry x="580" y="50" width="77.5" height="50" as="geometry" />
        </mxCell>
        <mxCell id="zqjJxMXIMrwAx4-Eq1Zg-45" value="" style="endArrow=none;html=1;rounded=0;entryX=1;entryY=1;entryDx=0;entryDy=0;exitX=0.5;exitY=0;exitDx=0;exitDy=0;" edge="1" parent="1" source="zqjJxMXIMrwAx4-Eq1Zg-43" target="zqjJxMXIMrwAx4-Eq1Zg-44">
          <mxGeometry width="50" height="50" relative="1" as="geometry">
            <mxPoint x="757.5" y="210" as="sourcePoint" />
            <mxPoint x="641.7649999999999" y="95.94999999999993" as="targetPoint" />
          </mxGeometry>
        </mxCell>
        <mxCell id="zqjJxMXIMrwAx4-Eq1Zg-46" value="" style="endArrow=none;html=1;rounded=0;entryX=0.5;entryY=1;entryDx=0;entryDy=0;exitX=0.5;exitY=0;exitDx=0;exitDy=0;" edge="1" parent="1" source="zqjJxMXIMrwAx4-Eq1Zg-43" target="zqjJxMXIMrwAx4-Eq1Zg-40">
          <mxGeometry width="50" height="50" relative="1" as="geometry">
            <mxPoint x="797.5" y="300" as="sourcePoint" />
            <mxPoint x="797.5" y="250" as="targetPoint" />
          </mxGeometry>
        </mxCell>
        <mxCell id="zqjJxMXIMrwAx4-Eq1Zg-47" value="" style="endArrow=none;html=1;rounded=0;entryX=0;entryY=1;entryDx=0;entryDy=0;exitX=0.5;exitY=0;exitDx=0;exitDy=0;" edge="1" parent="1" source="zqjJxMXIMrwAx4-Eq1Zg-43" target="zqjJxMXIMrwAx4-Eq1Zg-42">
          <mxGeometry width="50" height="50" relative="1" as="geometry">
            <mxPoint x="847.5" y="210" as="sourcePoint" />
            <mxPoint x="865.4449999999999" y="67.5" as="targetPoint" />
          </mxGeometry>
        </mxCell>
        <mxCell id="zqjJxMXIMrwAx4-Eq1Zg-48" value="" style="endArrow=none;html=1;rounded=0;entryX=0.5;entryY=1;entryDx=0;entryDy=0;exitX=0.5;exitY=0;exitDx=0;exitDy=0;" edge="1" parent="1" source="zqjJxMXIMrwAx4-Eq1Zg-43" target="zqjJxMXIMrwAx4-Eq1Zg-41">
          <mxGeometry width="50" height="50" relative="1" as="geometry">
            <mxPoint x="887.5" y="230" as="sourcePoint" />
            <mxPoint x="917.5" y="115" as="targetPoint" />
          </mxGeometry>
        </mxCell>
        <mxCell id="zqjJxMXIMrwAx4-Eq1Zg-49" value="LName" style="ellipse;whiteSpace=wrap;html=1;" vertex="1" parent="1">
          <mxGeometry x="652.5" y="125" width="77.5" height="50" as="geometry" />
        </mxCell>
        <mxCell id="zqjJxMXIMrwAx4-Eq1Zg-50" value="" style="endArrow=none;html=1;rounded=0;entryX=1;entryY=1;entryDx=0;entryDy=0;exitX=0.5;exitY=0;exitDx=0;exitDy=0;" edge="1" parent="1" source="zqjJxMXIMrwAx4-Eq1Zg-2" target="zqjJxMXIMrwAx4-Eq1Zg-49">
          <mxGeometry width="50" height="50" relative="1" as="geometry">
            <mxPoint x="700.25" y="260" as="sourcePoint" />
            <mxPoint x="691.25" y="240" as="targetPoint" />
          </mxGeometry>
        </mxCell>
        <mxCell id="zqjJxMXIMrwAx4-Eq1Zg-51" value="FName" style="ellipse;whiteSpace=wrap;html=1;" vertex="1" parent="1">
          <mxGeometry x="560" y="110" width="77.5" height="50" as="geometry" />
        </mxCell>
        <mxCell id="zqjJxMXIMrwAx4-Eq1Zg-52" value="" style="endArrow=none;html=1;rounded=0;entryX=1;entryY=1;entryDx=0;entryDy=0;exitX=0.5;exitY=0;exitDx=0;exitDy=0;" edge="1" parent="1" source="zqjJxMXIMrwAx4-Eq1Zg-2" target="zqjJxMXIMrwAx4-Eq1Zg-51">
          <mxGeometry width="50" height="50" relative="1" as="geometry">
            <mxPoint x="688.87" y="320" as="sourcePoint" />
            <mxPoint x="679.87" y="300" as="targetPoint" />
          </mxGeometry>
        </mxCell>
        <mxCell id="zqjJxMXIMrwAx4-Eq1Zg-53" value="" style="endArrow=none;html=1;rounded=0;entryX=0.5;entryY=0;entryDx=0;entryDy=0;exitX=0.5;exitY=1;exitDx=0;exitDy=0;" edge="1" parent="1" source="zqjJxMXIMrwAx4-Eq1Zg-43" target="zqjJxMXIMrwAx4-Eq1Zg-2">
          <mxGeometry width="50" height="50" relative="1" as="geometry">
            <mxPoint x="829" y="247" as="sourcePoint" />
            <mxPoint x="660" y="210" as="targetPoint" />
          </mxGeometry>
        </mxCell>
        <mxCell id="zqjJxMXIMrwAx4-Eq1Zg-54" value="" style="endArrow=none;html=1;rounded=0;entryX=1;entryY=0.5;entryDx=0;entryDy=0;exitX=0;exitY=0.5;exitDx=0;exitDy=0;" edge="1" parent="1" source="zqjJxMXIMrwAx4-Eq1Zg-38" target="zqjJxMXIMrwAx4-Eq1Zg-2">
          <mxGeometry width="50" height="50" relative="1" as="geometry">
            <mxPoint x="1079" y="317" as="sourcePoint" />
            <mxPoint x="910" y="280" as="targetPoint" />
          </mxGeometry>
        </mxCell>
        <mxCell id="zqjJxMXIMrwAx4-Eq1Zg-55" value="Email&lt;span style=&quot;color: rgba(0, 0, 0, 0); font-family: monospace; font-size: 0px; text-align: start; text-wrap-mode: nowrap;&quot;&gt;%3CmxGraphModel%3E%3Croot%3E%3CmxCell%20id%3D%220%22%2F%3E%3CmxCell%20id%3D%221%22%20parent%3D%220%22%2F%3E%3CmxCell%20id%3D%222%22%20value%3D%22LName%22%20style%3D%22ellipse%3BwhiteSpace%3Dwrap%3Bhtml%3D1%3B%22%20vertex%3D%221%22%20parent%3D%221%22%3E%3CmxGeometry%20x%3D%22590%22%20y%3D%2265%22%20width%3D%2277.5%22%20height%3D%2250%22%20as%3D%22geometry%22%2F%3E%3C%2FmxCell%3E%3CmxCell%20id%3D%223%22%20value%3D%22%22%20style%3D%22endArrow%3Dnone%3Bhtml%3D1%3Brounded%3D0%3BentryX%3D1%3BentryY%3D1%3BentryDx%3D0%3BentryDy%3D0%3BexitX%3D0.5%3BexitY%3D0%3BexitDx%3D0%3BexitDy%3D0%3B%22%20edge%3D%221%22%20target%3D%222%22%20parent%3D%221%22%3E%3CmxGeometry%20width%3D%2250%22%20height%3D%2250%22%20relative%3D%221%22%20as%3D%22geometry%22%3E%3CmxPoint%20x%3D%22755%22%20y%3D%22180%22%20as%3D%22sourcePoint%22%2F%3E%3CmxPoint%20x%3D%22661.25%22%20y%3D%22180%22%20as%3D%22targetPoint%22%2F%3E%3C%2FmxGeometry%3E%3C%2FmxCell%3E%3C%2Froot%3E%3C%2FmxGraphModel%3E&lt;/span&gt;" style="ellipse;whiteSpace=wrap;html=1;" vertex="1" parent="1">
          <mxGeometry x="840" y="125" width="77.5" height="50" as="geometry" />
        </mxCell>
        <mxCell id="zqjJxMXIMrwAx4-Eq1Zg-56" value="" style="endArrow=none;html=1;rounded=0;entryX=0;entryY=1;entryDx=0;entryDy=0;exitX=0.5;exitY=0;exitDx=0;exitDy=0;" edge="1" parent="1" source="zqjJxMXIMrwAx4-Eq1Zg-2" target="zqjJxMXIMrwAx4-Eq1Zg-55">
          <mxGeometry width="50" height="50" relative="1" as="geometry">
            <mxPoint x="1065" y="245" as="sourcePoint" />
            <mxPoint x="971.25" y="245" as="targetPoint" />
          </mxGeometry>
        </mxCell>
        <mxCell id="zqjJxMXIMrwAx4-Eq1Zg-57" value="DOB&lt;span style=&quot;color: rgba(0, 0, 0, 0); font-family: monospace; font-size: 0px; text-align: start; text-wrap-mode: nowrap;&quot;&gt;%3CmxGraphModel%3E%3Croot%3E%3CmxCell%20id%3D%220%22%2F%3E%3CmxCell%20id%3D%221%22%20parent%3D%220%22%2F%3E%3CmxCell%20id%3D%222%22%20value%3D%22Email%26lt%3Bspan%20style%3D%26quot%3Bcolor%3A%20rgba(0%2C%200%2C%200%2C%200)%3B%20font-family%3A%20monospace%3B%20font-size%3A%200px%3B%20text-align%3A%20start%3B%20text-wrap-mode%3A%20nowrap%3B%26quot%3B%26gt%3B%253CmxGraphModel%253E%253Croot%253E%253CmxCell%2520id%253D%25220%2522%252F%253E%253CmxCell%2520id%253D%25221%2522%2520parent%253D%25220%2522%252F%253E%253CmxCell%2520id%253D%25222%2522%2520value%253D%2522LName%2522%2520style%253D%2522ellipse%253BwhiteSpace%253Dwrap%253Bhtml%253D1%253B%2522%2520vertex%253D%25221%2522%2520parent%253D%25221%2522%253E%253CmxGeometry%2520x%253D%2522590%2522%2520y%253D%252265%2522%2520width%253D%252277.5%2522%2520height%253D%252250%2522%2520as%253D%2522geometry%2522%252F%253E%253C%252FmxCell%253E%253CmxCell%2520id%253D%25223%2522%2520value%253D%2522%2522%2520style%253D%2522endArrow%253Dnone%253Bhtml%253D1%253Brounded%253D0%253BentryX%253D1%253BentryY%253D1%253BentryDx%253D0%253BentryDy%253D0%253BexitX%253D0.5%253BexitY%253D0%253BexitDx%253D0%253BexitDy%253D0%253B%2522%2520edge%253D%25221%2522%2520target%253D%25222%2522%2520parent%253D%25221%2522%253E%253CmxGeometry%2520width%253D%252250%2522%2520height%253D%252250%2522%2520relative%253D%25221%2522%2520as%253D%2522geometry%2522%253E%253CmxPoint%2520x%253D%2522755%2522%2520y%253D%2522180%2522%2520as%253D%2522sourcePoint%2522%252F%253E%253CmxPoint%2520x%253D%2522661.25%2522%2520y%253D%2522180%2522%2520as%253D%2522targetPoint%2522%252F%253E%253C%252FmxGeometry%253E%253C%252FmxCell%253E%253C%252Froot%253E%253C%252FmxGraphModel%253E%26lt%3B%2Fspan%26gt%3B%22%20style%3D%22ellipse%3BwhiteSpace%3Dwrap%3Bhtml%3D1%3B%22%20vertex%3D%221%22%20parent%3D%221%22%3E%3CmxGeometry%20x%3D%22870%22%20y%3D%2270%22%20width%3D%2277.5%22%20height%3D%2250%22%20as%3D%22geometry%22%2F%3E%3C%2FmxCell%3E%3CmxCell%20id%3D%223%22%20value%3D%22%22%20style%3D%22endArrow%3Dnone%3Bhtml%3D1%3Brounded%3D0%3BentryX%3D0%3BentryY%3D1%3BentryDx%3D0%3BentryDy%3D0%3BexitX%3D0.5%3BexitY%3D0%3BexitDx%3D0%3BexitDy%3D0%3B%22%20edge%3D%221%22%20target%3D%222%22%20parent%3D%221%22%3E%3CmxGeometry%20width%3D%2250%22%20height%3D%2250%22%20relative%3D%221%22%20as%3D%22geometry%22%3E%3CmxPoint%20x%3D%22755%22%20y%3D%22180%22%20as%3D%22sourcePoint%22%2F%3E%3CmxPoint%20x%3D%22941.25%22%20y%3D%22185%22%20as%3D%22targetPoint%22%2F%3E%3C%2FmxGeometry%3E%3C%2FmxCell%3E%3C%2Froot%3E%3C%2FmxGraphModel%3E&lt;/span&gt;&lt;span style=&quot;color: rgba(0, 0, 0, 0); font-family: monospace; font-size: 0px; text-align: start; text-wrap-mode: nowrap;&quot;&gt;%3CmxGraphModel%3E%3Croot%3E%3CmxCell%20id%3D%220%22%2F%3E%3CmxCell%20id%3D%221%22%20parent%3D%220%22%2F%3E%3CmxCell%20id%3D%222%22%20value%3D%22Email%26lt%3Bspan%20style%3D%26quot%3Bcolor%3A%20rgba(0%2C%200%2C%200%2C%200)%3B%20font-family%3A%20monospace%3B%20font-size%3A%200px%3B%20text-align%3A%20start%3B%20text-wrap-mode%3A%20nowrap%3B%26quot%3B%26gt%3B%253CmxGraphModel%253E%253Croot%253E%253CmxCell%2520id%253D%25220%2522%252F%253E%253CmxCell%2520id%253D%25221%2522%2520parent%253D%25220%2522%252F%253E%253CmxCell%2520id%253D%25222%2522%2520value%253D%2522LName%2522%2520style%253D%2522ellipse%253BwhiteSpace%253Dwrap%253Bhtml%253D1%253B%2522%2520vertex%253D%25221%2522%2520parent%253D%25221%2522%253E%253CmxGeometry%2520x%253D%2522590%2522%2520y%253D%252265%2522%2520width%253D%252277.5%2522%2520height%253D%252250%2522%2520as%253D%2522geometry%2522%252F%253E%253C%252FmxCell%253E%253CmxCell%2520id%253D%25223%2522%2520value%253D%2522%2522%2520style%253D%2522endArrow%253Dnone%253Bhtml%253D1%253Brounded%253D0%253BentryX%253D1%253BentryY%253D1%253BentryDx%253D0%253BentryDy%253D0%253BexitX%253D0.5%253BexitY%253D0%253BexitDx%253D0%253BexitDy%253D0%253B%2522%2520edge%253D%25221%2522%2520target%253D%25222%2522%2520parent%253D%25221%2522%253E%253CmxGeometry%2520width%253D%252250%2522%2520height%253D%252250%2522%2520relative%253D%25221%2522%2520as%253D%2522geometry%2522%253E%253CmxPoint%2520x%253D%2522755%2522%2520y%253D%2522180%2522%2520as%253D%2522sourcePoint%2522%252F%253E%253CmxPoint%2520x%253D%2522661.25%2522%2520y%253D%2522180%2522%2520as%253D%2522targetPoint%2522%252F%253E%253C%252FmxGeometry%253E%253C%252FmxCell%253E%253C%252Froot%253E%253C%252FmxGraphModel%253E%26lt%3B%2Fspan%26gt%3B%22%20style%3D%22ellipse%3BwhiteSpace%3Dwrap%3Bhtml%3D1%3B%22%20vertex%3D%221%22%20parent%3D%221%22%3E%3CmxGeometry%20x%3D%22870%22%20y%3D%2270%22%20width%3D%2277.5%22%20height%3D%2250%22%20as%3D%22geometry%22%2F%3E%3C%2FmxCell%3E%3CmxCell%20id%3D%223%22%20value%3D%22%22%20style%3D%22endArrow%3Dnone%3Bhtml%3D1%3Brounded%3D0%3BentryX%3D0%3BentryY%3D1%3BentryDx%3D0%3BentryDy%3D0%3BexitX%3D0.5%3BexitY%3D0%3BexitDx%3D0%3BexitDy%3D0%3B%22%20edge%3D%221%22%20target%3D%222%22%20parent%3D%221%22%3E%3CmxGeometry%20width%3D%2250%22%20height%3D%2250%22%20relative%3D%221%22%20as%3D%22geometry%22%3E%3CmxPoint%20x%3D%22755%22%20y%3D%22180%22%20as%3D%22sourcePoint%22%2F%3E%3CmxPoint%20x%3D%22941.25%22%20y%3D%22185%22%20as%3D%22targetPoint%22%2F%3E%3C%2FmxGeometry%3E%3C%2FmxCell%3E%3C%2Froot%3E%3C%2FmxGraphModel%3E&lt;/span&gt;" style="ellipse;whiteSpace=wrap;html=1;" vertex="1" parent="1">
          <mxGeometry x="922.5" y="140" width="77.5" height="50" as="geometry" />
        </mxCell>
        <mxCell id="zqjJxMXIMrwAx4-Eq1Zg-58" value="" style="endArrow=none;html=1;rounded=0;entryX=0;entryY=1;entryDx=0;entryDy=0;exitX=0.5;exitY=0;exitDx=0;exitDy=0;" edge="1" parent="1" source="zqjJxMXIMrwAx4-Eq1Zg-2" target="zqjJxMXIMrwAx4-Eq1Zg-57">
          <mxGeometry width="50" height="50" relative="1" as="geometry">
            <mxPoint x="850" y="310" as="sourcePoint" />
            <mxPoint x="1036.25" y="315" as="targetPoint" />
          </mxGeometry>
        </mxCell>
        <mxCell id="zqjJxMXIMrwAx4-Eq1Zg-59" value="&lt;u&gt;EmpCode&lt;/u&gt;" style="ellipse;whiteSpace=wrap;html=1;" vertex="1" parent="1">
          <mxGeometry x="590" y="180" width="77.5" height="50" as="geometry" />
        </mxCell>
        <mxCell id="zqjJxMXIMrwAx4-Eq1Zg-60" value="" style="endArrow=none;html=1;rounded=0;entryX=1;entryY=0.5;entryDx=0;entryDy=0;exitX=0.5;exitY=0;exitDx=0;exitDy=0;" edge="1" parent="1" source="zqjJxMXIMrwAx4-Eq1Zg-2" target="zqjJxMXIMrwAx4-Eq1Zg-59">
          <mxGeometry width="50" height="50" relative="1" as="geometry">
            <mxPoint x="455" y="155" as="sourcePoint" />
            <mxPoint x="696.25" y="380" as="targetPoint" />
          </mxGeometry>
        </mxCell>
        <mxCell id="zqjJxMXIMrwAx4-Eq1Zg-145" style="rounded=0;orthogonalLoop=1;jettySize=auto;html=1;exitX=0.5;exitY=1;exitDx=0;exitDy=0;" edge="1" parent="1" source="zqjJxMXIMrwAx4-Eq1Zg-61" target="zqjJxMXIMrwAx4-Eq1Zg-80">
          <mxGeometry relative="1" as="geometry" />
        </mxCell>
        <mxCell id="zqjJxMXIMrwAx4-Eq1Zg-146" style="rounded=0;orthogonalLoop=1;jettySize=auto;html=1;exitX=0.5;exitY=1;exitDx=0;exitDy=0;" edge="1" parent="1" source="zqjJxMXIMrwAx4-Eq1Zg-61" target="zqjJxMXIMrwAx4-Eq1Zg-97">
          <mxGeometry relative="1" as="geometry" />
        </mxCell>
        <mxCell id="zqjJxMXIMrwAx4-Eq1Zg-61" value="d" style="ellipse;whiteSpace=wrap;html=1;aspect=fixed;" vertex="1" parent="1">
          <mxGeometry x="200" y="545" width="40" height="40" as="geometry" />
        </mxCell>
        <mxCell id="zqjJxMXIMrwAx4-Eq1Zg-62" value="&lt;u&gt;Number&lt;/u&gt;" style="ellipse;whiteSpace=wrap;html=1;" vertex="1" parent="1">
          <mxGeometry x="42.5" y="460" width="77.5" height="40" as="geometry" />
        </mxCell>
        <mxCell id="zqjJxMXIMrwAx4-Eq1Zg-63" value="" style="endArrow=none;html=1;rounded=0;entryX=1;entryY=0.5;entryDx=0;entryDy=0;exitX=0;exitY=0.5;exitDx=0;exitDy=0;" edge="1" parent="1" source="zqjJxMXIMrwAx4-Eq1Zg-5" target="zqjJxMXIMrwAx4-Eq1Zg-62">
          <mxGeometry width="50" height="50" relative="1" as="geometry">
            <mxPoint x="150.25" y="500" as="sourcePoint" />
            <mxPoint x="141.25" y="480" as="targetPoint" />
          </mxGeometry>
        </mxCell>
        <mxCell id="zqjJxMXIMrwAx4-Eq1Zg-80" value="Saving Account" style="html=1;whiteSpace=wrap;" vertex="1" parent="1">
          <mxGeometry x="33.75" y="630" width="110" height="50" as="geometry" />
        </mxCell>
        <mxCell id="zqjJxMXIMrwAx4-Eq1Zg-81" value="Opened Rate" style="ellipse;whiteSpace=wrap;html=1;" vertex="1" parent="1">
          <mxGeometry x="-77" y="730" width="77.5" height="50" as="geometry" />
        </mxCell>
        <mxCell id="zqjJxMXIMrwAx4-Eq1Zg-82" value="Balance" style="ellipse;whiteSpace=wrap;html=1;" vertex="1" parent="1">
          <mxGeometry x="-120" y="680" width="77.5" height="50" as="geometry" />
        </mxCell>
        <mxCell id="zqjJxMXIMrwAx4-Eq1Zg-83" value="Interest Rate" style="ellipse;whiteSpace=wrap;html=1;" vertex="1" parent="1">
          <mxGeometry x="10" y="740" width="77.5" height="50" as="geometry" />
        </mxCell>
        <mxCell id="zqjJxMXIMrwAx4-Eq1Zg-87" value="" style="endArrow=none;html=1;rounded=0;entryX=0.954;entryY=0.349;entryDx=0;entryDy=0;exitX=0.5;exitY=1;exitDx=0;exitDy=0;entryPerimeter=0;" edge="1" parent="1" source="zqjJxMXIMrwAx4-Eq1Zg-80" target="zqjJxMXIMrwAx4-Eq1Zg-82">
          <mxGeometry width="50" height="50" relative="1" as="geometry">
            <mxPoint x="-125" y="655" as="sourcePoint" />
            <mxPoint x="-171" y="640" as="targetPoint" />
          </mxGeometry>
        </mxCell>
        <mxCell id="zqjJxMXIMrwAx4-Eq1Zg-88" value="" style="endArrow=none;html=1;rounded=0;entryX=0.5;entryY=0;entryDx=0;entryDy=0;exitX=0.5;exitY=1;exitDx=0;exitDy=0;" edge="1" parent="1" source="zqjJxMXIMrwAx4-Eq1Zg-80" target="zqjJxMXIMrwAx4-Eq1Zg-81">
          <mxGeometry width="50" height="50" relative="1" as="geometry">
            <mxPoint x="-5" y="650" as="sourcePoint" />
            <mxPoint x="-105" y="680" as="targetPoint" />
          </mxGeometry>
        </mxCell>
        <mxCell id="zqjJxMXIMrwAx4-Eq1Zg-89" value="" style="endArrow=none;html=1;rounded=0;exitX=0.5;exitY=1;exitDx=0;exitDy=0;" edge="1" parent="1" source="zqjJxMXIMrwAx4-Eq1Zg-80" target="zqjJxMXIMrwAx4-Eq1Zg-83">
          <mxGeometry width="50" height="50" relative="1" as="geometry">
            <mxPoint x="45" y="670" as="sourcePoint" />
            <mxPoint x="-55" y="700" as="targetPoint" />
          </mxGeometry>
        </mxCell>
        <mxCell id="zqjJxMXIMrwAx4-Eq1Zg-90" value="Loan" style="html=1;whiteSpace=wrap;" vertex="1" parent="1">
          <mxGeometry x="310" y="630" width="110" height="50" as="geometry" />
        </mxCell>
        <mxCell id="zqjJxMXIMrwAx4-Eq1Zg-91" value="Taken Date" style="ellipse;whiteSpace=wrap;html=1;" vertex="1" parent="1">
          <mxGeometry x="405" y="720" width="77.5" height="50" as="geometry" />
        </mxCell>
        <mxCell id="zqjJxMXIMrwAx4-Eq1Zg-92" value="Balance Due" style="ellipse;whiteSpace=wrap;html=1;" vertex="1" parent="1">
          <mxGeometry x="326.25" y="750" width="77.5" height="50" as="geometry" />
        </mxCell>
        <mxCell id="zqjJxMXIMrwAx4-Eq1Zg-93" value="Interest Rate" style="ellipse;whiteSpace=wrap;html=1;" vertex="1" parent="1">
          <mxGeometry x="482.5" y="680" width="77.5" height="50" as="geometry" />
        </mxCell>
        <mxCell id="zqjJxMXIMrwAx4-Eq1Zg-94" value="" style="endArrow=none;html=1;rounded=0;entryX=0.5;entryY=0;entryDx=0;entryDy=0;exitX=0.5;exitY=1;exitDx=0;exitDy=0;" edge="1" parent="1" source="zqjJxMXIMrwAx4-Eq1Zg-90" target="zqjJxMXIMrwAx4-Eq1Zg-92">
          <mxGeometry width="50" height="50" relative="1" as="geometry">
            <mxPoint x="330" y="675" as="sourcePoint" />
            <mxPoint x="284" y="660" as="targetPoint" />
          </mxGeometry>
        </mxCell>
        <mxCell id="zqjJxMXIMrwAx4-Eq1Zg-95" value="" style="endArrow=none;html=1;rounded=0;entryX=0.5;entryY=0;entryDx=0;entryDy=0;exitX=0.5;exitY=1;exitDx=0;exitDy=0;" edge="1" parent="1" source="zqjJxMXIMrwAx4-Eq1Zg-90" target="zqjJxMXIMrwAx4-Eq1Zg-91">
          <mxGeometry width="50" height="50" relative="1" as="geometry">
            <mxPoint x="450" y="670" as="sourcePoint" />
            <mxPoint x="350" y="700" as="targetPoint" />
          </mxGeometry>
        </mxCell>
        <mxCell id="zqjJxMXIMrwAx4-Eq1Zg-96" value="" style="endArrow=none;html=1;rounded=0;exitX=0.5;exitY=1;exitDx=0;exitDy=0;" edge="1" parent="1" source="zqjJxMXIMrwAx4-Eq1Zg-90" target="zqjJxMXIMrwAx4-Eq1Zg-93">
          <mxGeometry width="50" height="50" relative="1" as="geometry">
            <mxPoint x="500" y="690" as="sourcePoint" />
            <mxPoint x="400" y="720" as="targetPoint" />
          </mxGeometry>
        </mxCell>
        <mxCell id="zqjJxMXIMrwAx4-Eq1Zg-97" value="Checking Account" style="html=1;whiteSpace=wrap;" vertex="1" parent="1">
          <mxGeometry x="173.75" y="630" width="110" height="50" as="geometry" />
        </mxCell>
        <mxCell id="zqjJxMXIMrwAx4-Eq1Zg-98" value="Opened Rate" style="ellipse;whiteSpace=wrap;html=1;" vertex="1" parent="1">
          <mxGeometry x="232.5" y="760" width="77.5" height="50" as="geometry" />
        </mxCell>
        <mxCell id="zqjJxMXIMrwAx4-Eq1Zg-99" value="Balance" style="ellipse;whiteSpace=wrap;html=1;" vertex="1" parent="1">
          <mxGeometry x="110" y="750" width="77.5" height="50" as="geometry" />
        </mxCell>
        <mxCell id="zqjJxMXIMrwAx4-Eq1Zg-101" value="" style="endArrow=none;html=1;rounded=0;entryX=0.5;entryY=0;entryDx=0;entryDy=0;exitX=0.5;exitY=1;exitDx=0;exitDy=0;" edge="1" parent="1" source="zqjJxMXIMrwAx4-Eq1Zg-97" target="zqjJxMXIMrwAx4-Eq1Zg-99">
          <mxGeometry width="50" height="50" relative="1" as="geometry">
            <mxPoint x="135" y="795" as="sourcePoint" />
            <mxPoint x="89" y="780" as="targetPoint" />
          </mxGeometry>
        </mxCell>
        <mxCell id="zqjJxMXIMrwAx4-Eq1Zg-102" value="" style="endArrow=none;html=1;rounded=0;entryX=0.5;entryY=0;entryDx=0;entryDy=0;exitX=0.5;exitY=1;exitDx=0;exitDy=0;" edge="1" parent="1" source="zqjJxMXIMrwAx4-Eq1Zg-97" target="zqjJxMXIMrwAx4-Eq1Zg-98">
          <mxGeometry width="50" height="50" relative="1" as="geometry">
            <mxPoint x="255" y="790" as="sourcePoint" />
            <mxPoint x="155" y="820" as="targetPoint" />
          </mxGeometry>
        </mxCell>
        <mxCell id="zqjJxMXIMrwAx4-Eq1Zg-106" value="Phones" style="ellipse;shape=doubleEllipse;whiteSpace=wrap;html=1;" vertex="1" parent="1">
          <mxGeometry x="782.5" y="585" width="100" height="50" as="geometry" />
        </mxCell>
        <mxCell id="zqjJxMXIMrwAx4-Eq1Zg-107" value="Ofifce Addr" style="ellipse;whiteSpace=wrap;html=1;" vertex="1" parent="1">
          <mxGeometry x="912.5" y="510" width="77.5" height="60" as="geometry" />
        </mxCell>
        <mxCell id="zqjJxMXIMrwAx4-Eq1Zg-108" value="LName" style="ellipse;whiteSpace=wrap;html=1;" vertex="1" parent="1">
          <mxGeometry x="912.5" y="410" width="77.5" height="50" as="geometry" />
        </mxCell>
        <mxCell id="zqjJxMXIMrwAx4-Eq1Zg-109" value="" style="endArrow=none;html=1;rounded=0;entryX=0;entryY=1;entryDx=0;entryDy=0;exitX=1;exitY=0.5;exitDx=0;exitDy=0;" edge="1" parent="1" source="zqjJxMXIMrwAx4-Eq1Zg-3" target="zqjJxMXIMrwAx4-Eq1Zg-108">
          <mxGeometry width="50" height="50" relative="1" as="geometry">
            <mxPoint x="1217.5" y="690" as="sourcePoint" />
            <mxPoint x="1123.75" y="690" as="targetPoint" />
          </mxGeometry>
        </mxCell>
        <mxCell id="zqjJxMXIMrwAx4-Eq1Zg-110" value="FName" style="ellipse;whiteSpace=wrap;html=1;" vertex="1" parent="1">
          <mxGeometry x="922.5" y="460" width="77.5" height="50" as="geometry" />
        </mxCell>
        <mxCell id="zqjJxMXIMrwAx4-Eq1Zg-111" value="" style="endArrow=none;html=1;rounded=0;entryX=-0.006;entryY=0.64;entryDx=0;entryDy=0;exitX=1;exitY=0.5;exitDx=0;exitDy=0;entryPerimeter=0;" edge="1" parent="1" source="zqjJxMXIMrwAx4-Eq1Zg-3" target="zqjJxMXIMrwAx4-Eq1Zg-110">
          <mxGeometry width="50" height="50" relative="1" as="geometry">
            <mxPoint x="1217.5" y="690" as="sourcePoint" />
            <mxPoint x="1112.37" y="750" as="targetPoint" />
          </mxGeometry>
        </mxCell>
        <mxCell id="zqjJxMXIMrwAx4-Eq1Zg-112" value="" style="endArrow=none;html=1;rounded=0;entryX=1;entryY=0.5;entryDx=0;entryDy=0;exitX=0;exitY=0.5;exitDx=0;exitDy=0;" edge="1" parent="1" source="zqjJxMXIMrwAx4-Eq1Zg-107" target="zqjJxMXIMrwAx4-Eq1Zg-3">
          <mxGeometry width="50" height="50" relative="1" as="geometry">
            <mxPoint x="912.5" y="540" as="sourcePoint" />
            <mxPoint x="898.75" y="570" as="targetPoint" />
          </mxGeometry>
        </mxCell>
        <mxCell id="zqjJxMXIMrwAx4-Eq1Zg-113" value="" style="endArrow=none;html=1;rounded=0;entryX=0.5;entryY=1;entryDx=0;entryDy=0;exitX=0;exitY=0;exitDx=0;exitDy=0;" edge="1" parent="1" source="zqjJxMXIMrwAx4-Eq1Zg-106" target="zqjJxMXIMrwAx4-Eq1Zg-3">
          <mxGeometry width="50" height="50" relative="1" as="geometry">
            <mxPoint x="1024" y="667" as="sourcePoint" />
            <mxPoint x="785" y="615" as="targetPoint" />
          </mxGeometry>
        </mxCell>
        <mxCell id="zqjJxMXIMrwAx4-Eq1Zg-114" value="Email&lt;span style=&quot;color: rgba(0, 0, 0, 0); font-family: monospace; font-size: 0px; text-align: start; text-wrap-mode: nowrap;&quot;&gt;%3CmxGraphModel%3E%3Croot%3E%3CmxCell%20id%3D%220%22%2F%3E%3CmxCell%20id%3D%221%22%20parent%3D%220%22%2F%3E%3CmxCell%20id%3D%222%22%20value%3D%22LName%22%20style%3D%22ellipse%3BwhiteSpace%3Dwrap%3Bhtml%3D1%3B%22%20vertex%3D%221%22%20parent%3D%221%22%3E%3CmxGeometry%20x%3D%22590%22%20y%3D%2265%22%20width%3D%2277.5%22%20height%3D%2250%22%20as%3D%22geometry%22%2F%3E%3C%2FmxCell%3E%3CmxCell%20id%3D%223%22%20value%3D%22%22%20style%3D%22endArrow%3Dnone%3Bhtml%3D1%3Brounded%3D0%3BentryX%3D1%3BentryY%3D1%3BentryDx%3D0%3BentryDy%3D0%3BexitX%3D0.5%3BexitY%3D0%3BexitDx%3D0%3BexitDy%3D0%3B%22%20edge%3D%221%22%20target%3D%222%22%20parent%3D%221%22%3E%3CmxGeometry%20width%3D%2250%22%20height%3D%2250%22%20relative%3D%221%22%20as%3D%22geometry%22%3E%3CmxPoint%20x%3D%22755%22%20y%3D%22180%22%20as%3D%22sourcePoint%22%2F%3E%3CmxPoint%20x%3D%22661.25%22%20y%3D%22180%22%20as%3D%22targetPoint%22%2F%3E%3C%2FmxGeometry%3E%3C%2FmxCell%3E%3C%2Froot%3E%3C%2FmxGraphModel%3E&lt;/span&gt;" style="ellipse;whiteSpace=wrap;html=1;" vertex="1" parent="1">
          <mxGeometry x="702.5" y="565" width="77.5" height="50" as="geometry" />
        </mxCell>
        <mxCell id="zqjJxMXIMrwAx4-Eq1Zg-115" value="" style="endArrow=none;html=1;rounded=0;entryX=0.5;entryY=1;entryDx=0;entryDy=0;exitX=0.5;exitY=0;exitDx=0;exitDy=0;" edge="1" parent="1" source="zqjJxMXIMrwAx4-Eq1Zg-114" target="zqjJxMXIMrwAx4-Eq1Zg-3">
          <mxGeometry width="50" height="50" relative="1" as="geometry">
            <mxPoint x="701.05" y="600.26" as="sourcePoint" />
            <mxPoint x="767.5021703104901" y="528.0035892981812" as="targetPoint" />
          </mxGeometry>
        </mxCell>
        <mxCell id="zqjJxMXIMrwAx4-Eq1Zg-116" value="Home Addr" style="ellipse;whiteSpace=wrap;html=1;" vertex="1" parent="1">
          <mxGeometry x="900" y="585" width="77.5" height="50" as="geometry" />
        </mxCell>
        <mxCell id="zqjJxMXIMrwAx4-Eq1Zg-117" value="" style="endArrow=none;html=1;rounded=0;entryX=0;entryY=0;entryDx=0;entryDy=0;exitX=0.5;exitY=1;exitDx=0;exitDy=0;" edge="1" parent="1" source="zqjJxMXIMrwAx4-Eq1Zg-3" target="zqjJxMXIMrwAx4-Eq1Zg-116">
          <mxGeometry width="50" height="50" relative="1" as="geometry">
            <mxPoint x="762.5" y="685" as="sourcePoint" />
            <mxPoint x="1013.75" y="760" as="targetPoint" />
          </mxGeometry>
        </mxCell>
        <mxCell id="zqjJxMXIMrwAx4-Eq1Zg-118" value="&lt;u&gt;CusCode&lt;/u&gt;" style="ellipse;whiteSpace=wrap;html=1;" vertex="1" parent="1">
          <mxGeometry x="597.5" y="540" width="77.5" height="50" as="geometry" />
        </mxCell>
        <mxCell id="zqjJxMXIMrwAx4-Eq1Zg-119" value="" style="endArrow=none;html=1;rounded=0;entryX=1;entryY=0.5;entryDx=0;entryDy=0;exitX=0;exitY=0.75;exitDx=0;exitDy=0;" edge="1" parent="1" source="zqjJxMXIMrwAx4-Eq1Zg-3" target="zqjJxMXIMrwAx4-Eq1Zg-118">
          <mxGeometry width="50" height="50" relative="1" as="geometry">
            <mxPoint x="752.5" y="600" as="sourcePoint" />
            <mxPoint x="663.75" y="740" as="targetPoint" />
          </mxGeometry>
        </mxCell>
        <mxCell id="zqjJxMXIMrwAx4-Eq1Zg-120" value="Server" style="shape=rhombus;perimeter=rhombusPerimeter;whiteSpace=wrap;html=1;align=center;" vertex="1" parent="1">
          <mxGeometry x="723.75" y="340" width="120" height="60" as="geometry" />
        </mxCell>
        <mxCell id="zqjJxMXIMrwAx4-Eq1Zg-122" value="" style="endArrow=none;html=1;rounded=0;entryX=0.5;entryY=1;entryDx=0;entryDy=0;exitX=0.5;exitY=0;exitDx=0;exitDy=0;" edge="1" parent="1" source="zqjJxMXIMrwAx4-Eq1Zg-120" target="zqjJxMXIMrwAx4-Eq1Zg-2">
          <mxGeometry width="50" height="50" relative="1" as="geometry">
            <mxPoint x="652.5" y="362" as="sourcePoint" />
            <mxPoint x="743.5" y="310" as="targetPoint" />
          </mxGeometry>
        </mxCell>
        <mxCell id="zqjJxMXIMrwAx4-Eq1Zg-123" value="" style="endArrow=none;html=1;rounded=0;entryX=0.5;entryY=1;entryDx=0;entryDy=0;exitX=0.5;exitY=0;exitDx=0;exitDy=0;" edge="1" parent="1" source="zqjJxMXIMrwAx4-Eq1Zg-3" target="zqjJxMXIMrwAx4-Eq1Zg-120">
          <mxGeometry width="50" height="50" relative="1" as="geometry">
            <mxPoint x="783.25" y="460" as="sourcePoint" />
            <mxPoint x="784.25" y="410" as="targetPoint" />
          </mxGeometry>
        </mxCell>
        <mxCell id="zqjJxMXIMrwAx4-Eq1Zg-125" value="1" style="text;html=1;align=center;verticalAlign=middle;resizable=0;points=[];autosize=1;strokeColor=none;fillColor=none;" vertex="1" parent="1">
          <mxGeometry x="755" y="310" width="30" height="30" as="geometry" />
        </mxCell>
        <mxCell id="zqjJxMXIMrwAx4-Eq1Zg-126" value="n" style="text;html=1;align=center;verticalAlign=middle;resizable=0;points=[];autosize=1;strokeColor=none;fillColor=none;" vertex="1" parent="1">
          <mxGeometry x="755" y="400" width="30" height="30" as="geometry" />
        </mxCell>
        <mxCell id="zqjJxMXIMrwAx4-Eq1Zg-127" value="Has" style="shape=rhombus;perimeter=rhombusPerimeter;whiteSpace=wrap;html=1;align=center;" vertex="1" parent="1">
          <mxGeometry x="440" y="465" width="120" height="60" as="geometry" />
        </mxCell>
        <mxCell id="zqjJxMXIMrwAx4-Eq1Zg-128" value="" style="shape=link;html=1;rounded=0;exitX=1;exitY=0.5;exitDx=0;exitDy=0;entryX=0;entryY=0.5;entryDx=0;entryDy=0;" edge="1" parent="1" source="zqjJxMXIMrwAx4-Eq1Zg-5" target="zqjJxMXIMrwAx4-Eq1Zg-127">
          <mxGeometry relative="1" as="geometry">
            <mxPoint x="280" y="490" as="sourcePoint" />
            <mxPoint x="440" y="490" as="targetPoint" />
          </mxGeometry>
        </mxCell>
        <mxCell id="zqjJxMXIMrwAx4-Eq1Zg-129" value="N" style="resizable=0;html=1;whiteSpace=wrap;align=right;verticalAlign=bottom;" connectable="0" vertex="1" parent="zqjJxMXIMrwAx4-Eq1Zg-128">
          <mxGeometry x="1" relative="1" as="geometry" />
        </mxCell>
        <mxCell id="zqjJxMXIMrwAx4-Eq1Zg-130" value="" style="endArrow=none;html=1;rounded=0;entryX=1;entryY=0.5;entryDx=0;entryDy=0;exitX=0;exitY=0.5;exitDx=0;exitDy=0;" edge="1" parent="1" source="zqjJxMXIMrwAx4-Eq1Zg-3" target="zqjJxMXIMrwAx4-Eq1Zg-127">
          <mxGeometry relative="1" as="geometry">
            <mxPoint x="530" y="434.52" as="sourcePoint" />
            <mxPoint x="690" y="434.52" as="targetPoint" />
          </mxGeometry>
        </mxCell>
        <mxCell id="zqjJxMXIMrwAx4-Eq1Zg-131" value="1" style="resizable=0;html=1;whiteSpace=wrap;align=right;verticalAlign=bottom;" connectable="0" vertex="1" parent="zqjJxMXIMrwAx4-Eq1Zg-130">
          <mxGeometry x="1" relative="1" as="geometry" />
        </mxCell>
        <mxCell id="zqjJxMXIMrwAx4-Eq1Zg-132" value="" style="shape=link;html=1;rounded=0;exitX=1;exitY=0.5;exitDx=0;exitDy=0;entryX=0;entryY=0.5;entryDx=0;entryDy=0;" edge="1" parent="1" source="zqjJxMXIMrwAx4-Eq1Zg-1" target="zqjJxMXIMrwAx4-Eq1Zg-134">
          <mxGeometry relative="1" as="geometry">
            <mxPoint x="187.5" y="350" as="sourcePoint" />
            <mxPoint x="347.5" y="350" as="targetPoint" />
          </mxGeometry>
        </mxCell>
        <mxCell id="zqjJxMXIMrwAx4-Eq1Zg-133" value="1" style="resizable=0;html=1;whiteSpace=wrap;align=right;verticalAlign=bottom;" connectable="0" vertex="1" parent="zqjJxMXIMrwAx4-Eq1Zg-132">
          <mxGeometry x="1" relative="1" as="geometry" />
        </mxCell>
        <mxCell id="zqjJxMXIMrwAx4-Eq1Zg-134" value="Manage" style="shape=rhombus;perimeter=rhombusPerimeter;whiteSpace=wrap;html=1;align=center;" vertex="1" parent="1">
          <mxGeometry x="400" y="320" width="120" height="50" as="geometry" />
        </mxCell>
        <mxCell id="zqjJxMXIMrwAx4-Eq1Zg-135" value="Work for" style="shape=rhombus;perimeter=rhombusPerimeter;whiteSpace=wrap;html=1;align=center;" vertex="1" parent="1">
          <mxGeometry x="387.5" y="240" width="120" height="50" as="geometry" />
        </mxCell>
        <mxCell id="zqjJxMXIMrwAx4-Eq1Zg-136" value="" style="endArrow=none;html=1;rounded=0;entryX=1;entryY=0.5;entryDx=0;entryDy=0;exitX=0;exitY=0.5;exitDx=0;exitDy=0;" edge="1" parent="1" source="zqjJxMXIMrwAx4-Eq1Zg-2" target="zqjJxMXIMrwAx4-Eq1Zg-134">
          <mxGeometry relative="1" as="geometry">
            <mxPoint x="675" y="340" as="sourcePoint" />
            <mxPoint x="511" y="335" as="targetPoint" />
          </mxGeometry>
        </mxCell>
        <mxCell id="zqjJxMXIMrwAx4-Eq1Zg-137" value="1" style="resizable=0;html=1;whiteSpace=wrap;align=right;verticalAlign=bottom;" connectable="0" vertex="1" parent="zqjJxMXIMrwAx4-Eq1Zg-136">
          <mxGeometry x="1" relative="1" as="geometry" />
        </mxCell>
        <mxCell id="zqjJxMXIMrwAx4-Eq1Zg-138" value="" style="shape=link;html=1;rounded=0;exitX=0;exitY=0.5;exitDx=0;exitDy=0;" edge="1" parent="1" source="zqjJxMXIMrwAx4-Eq1Zg-2" target="zqjJxMXIMrwAx4-Eq1Zg-135">
          <mxGeometry relative="1" as="geometry">
            <mxPoint x="510" y="270" as="sourcePoint" />
            <mxPoint x="675" y="270" as="targetPoint" />
          </mxGeometry>
        </mxCell>
        <mxCell id="zqjJxMXIMrwAx4-Eq1Zg-139" value="N" style="resizable=0;html=1;whiteSpace=wrap;align=right;verticalAlign=bottom;" connectable="0" vertex="1" parent="zqjJxMXIMrwAx4-Eq1Zg-138">
          <mxGeometry x="1" relative="1" as="geometry" />
        </mxCell>
        <mxCell id="zqjJxMXIMrwAx4-Eq1Zg-140" value="" style="endArrow=none;html=1;rounded=0;entryX=0;entryY=0.5;entryDx=0;entryDy=0;exitX=1;exitY=0.5;exitDx=0;exitDy=0;" edge="1" parent="1" source="zqjJxMXIMrwAx4-Eq1Zg-1" target="zqjJxMXIMrwAx4-Eq1Zg-135">
          <mxGeometry relative="1" as="geometry">
            <mxPoint x="482.5" y="285" as="sourcePoint" />
            <mxPoint x="318.5" y="280" as="targetPoint" />
          </mxGeometry>
        </mxCell>
        <mxCell id="zqjJxMXIMrwAx4-Eq1Zg-141" value="1" style="resizable=0;html=1;whiteSpace=wrap;align=right;verticalAlign=bottom;" connectable="0" vertex="1" parent="zqjJxMXIMrwAx4-Eq1Zg-140">
          <mxGeometry x="1" relative="1" as="geometry" />
        </mxCell>
        <mxCell id="zqjJxMXIMrwAx4-Eq1Zg-142" value="" style="shape=link;html=1;rounded=0;exitX=0.5;exitY=1;exitDx=0;exitDy=0;entryX=0.5;entryY=0;entryDx=0;entryDy=0;" edge="1" parent="1" source="zqjJxMXIMrwAx4-Eq1Zg-5" target="zqjJxMXIMrwAx4-Eq1Zg-61">
          <mxGeometry relative="1" as="geometry">
            <mxPoint x="219.52" y="525" as="sourcePoint" />
            <mxPoint x="219.52" y="575" as="targetPoint" />
          </mxGeometry>
        </mxCell>
        <mxCell id="zqjJxMXIMrwAx4-Eq1Zg-143" value="" style="resizable=0;html=1;whiteSpace=wrap;align=right;verticalAlign=bottom;" connectable="0" vertex="1" parent="zqjJxMXIMrwAx4-Eq1Zg-142">
          <mxGeometry x="1" relative="1" as="geometry" />
        </mxCell>
        <mxCell id="zqjJxMXIMrwAx4-Eq1Zg-147" style="rounded=0;orthogonalLoop=1;jettySize=auto;html=1;exitX=0.5;exitY=1;exitDx=0;exitDy=0;entryX=0.572;entryY=0.033;entryDx=0;entryDy=0;entryPerimeter=0;" edge="1" parent="1" source="zqjJxMXIMrwAx4-Eq1Zg-61" target="zqjJxMXIMrwAx4-Eq1Zg-90">
          <mxGeometry relative="1" as="geometry" />
        </mxCell>
        <mxCell id="mAg6YFI7oVybkE3yfGRV-1" value="&lt;font style=&quot;font-size: 18px;&quot;&gt;Sở đồ ERD mức khải niệm&lt;/font&gt;" style="text;html=1;align=center;verticalAlign=middle;resizable=0;points=[];autosize=1;strokeColor=none;fillColor=none;" vertex="1" parent="1">
          <mxGeometry x="270" y="853" width="240" height="40" as="geometry" />
        </mxCell>
        <mxCell id="gMe8buZzxaM-WdLKkXCs-1" value="Customer" style="html=1;whiteSpace=wrap;" vertex="1" parent="1">
          <mxGeometry x="1718.75" y="110" width="110" height="50" as="geometry" />
        </mxCell>
        <mxCell id="gMe8buZzxaM-WdLKkXCs-2" value="Account" style="html=1;whiteSpace=wrap;" vertex="1" parent="1">
          <mxGeometry x="1160" y="105" width="110" height="50" as="geometry" />
        </mxCell>
        <mxCell id="gMe8buZzxaM-WdLKkXCs-3" value="Has" style="shape=rhombus;perimeter=rhombusPerimeter;whiteSpace=wrap;html=1;align=center;" vertex="1" parent="1">
          <mxGeometry x="1435" y="100" width="120" height="60" as="geometry" />
        </mxCell>
        <mxCell id="gMe8buZzxaM-WdLKkXCs-4" value="" style="shape=link;html=1;rounded=0;exitX=1;exitY=0.5;exitDx=0;exitDy=0;entryX=0;entryY=0.5;entryDx=0;entryDy=0;" edge="1" parent="1" source="gMe8buZzxaM-WdLKkXCs-2" target="gMe8buZzxaM-WdLKkXCs-3">
          <mxGeometry relative="1" as="geometry">
            <mxPoint x="1275" y="125" as="sourcePoint" />
            <mxPoint x="1435" y="125" as="targetPoint" />
          </mxGeometry>
        </mxCell>
        <mxCell id="gMe8buZzxaM-WdLKkXCs-5" value="N" style="resizable=0;html=1;whiteSpace=wrap;align=right;verticalAlign=bottom;" connectable="0" vertex="1" parent="gMe8buZzxaM-WdLKkXCs-4">
          <mxGeometry x="1" relative="1" as="geometry" />
        </mxCell>
        <mxCell id="gMe8buZzxaM-WdLKkXCs-6" value="" style="endArrow=none;html=1;rounded=0;entryX=1;entryY=0.5;entryDx=0;entryDy=0;exitX=0;exitY=0.5;exitDx=0;exitDy=0;" edge="1" parent="1" source="gMe8buZzxaM-WdLKkXCs-1" target="gMe8buZzxaM-WdLKkXCs-3">
          <mxGeometry relative="1" as="geometry">
            <mxPoint x="1525" y="69.51999999999998" as="sourcePoint" />
            <mxPoint x="1685" y="69.51999999999998" as="targetPoint" />
          </mxGeometry>
        </mxCell>
        <mxCell id="gMe8buZzxaM-WdLKkXCs-7" value="1" style="resizable=0;html=1;whiteSpace=wrap;align=right;verticalAlign=bottom;" connectable="0" vertex="1" parent="gMe8buZzxaM-WdLKkXCs-6">
          <mxGeometry x="1" relative="1" as="geometry" />
        </mxCell>
        <mxCell id="gMe8buZzxaM-WdLKkXCs-8" value="Branch" style="html=1;whiteSpace=wrap;" vertex="1" parent="1">
          <mxGeometry x="1160" y="240" width="110" height="50" as="geometry" />
        </mxCell>
        <mxCell id="gMe8buZzxaM-WdLKkXCs-9" value="Employee" style="html=1;whiteSpace=wrap;" vertex="1" parent="1">
          <mxGeometry x="1716.25" y="240" width="110" height="50" as="geometry" />
        </mxCell>
        <mxCell id="gMe8buZzxaM-WdLKkXCs-10" value="Work for" style="shape=rhombus;perimeter=rhombusPerimeter;whiteSpace=wrap;html=1;align=center;" vertex="1" parent="1">
          <mxGeometry x="1373.75" y="240" width="120" height="50" as="geometry" />
        </mxCell>
        <mxCell id="gMe8buZzxaM-WdLKkXCs-11" value="" style="shape=link;html=1;rounded=0;exitX=0;exitY=0.5;exitDx=0;exitDy=0;" edge="1" parent="1" source="gMe8buZzxaM-WdLKkXCs-9" target="gMe8buZzxaM-WdLKkXCs-10">
          <mxGeometry relative="1" as="geometry">
            <mxPoint x="1496.25" y="270" as="sourcePoint" />
            <mxPoint x="1661.25" y="270" as="targetPoint" />
          </mxGeometry>
        </mxCell>
        <mxCell id="gMe8buZzxaM-WdLKkXCs-12" value="N" style="resizable=0;html=1;whiteSpace=wrap;align=right;verticalAlign=bottom;" connectable="0" vertex="1" parent="gMe8buZzxaM-WdLKkXCs-11">
          <mxGeometry x="1" relative="1" as="geometry" />
        </mxCell>
        <mxCell id="gMe8buZzxaM-WdLKkXCs-13" value="" style="endArrow=none;html=1;rounded=0;entryX=0;entryY=0.5;entryDx=0;entryDy=0;exitX=1;exitY=0.5;exitDx=0;exitDy=0;" edge="1" parent="1" source="gMe8buZzxaM-WdLKkXCs-8" target="gMe8buZzxaM-WdLKkXCs-10">
          <mxGeometry relative="1" as="geometry">
            <mxPoint x="1468.75" y="285" as="sourcePoint" />
            <mxPoint x="1304.75" y="280" as="targetPoint" />
          </mxGeometry>
        </mxCell>
        <mxCell id="gMe8buZzxaM-WdLKkXCs-14" value="1" style="resizable=0;html=1;whiteSpace=wrap;align=right;verticalAlign=bottom;" connectable="0" vertex="1" parent="gMe8buZzxaM-WdLKkXCs-13">
          <mxGeometry x="1" relative="1" as="geometry" />
        </mxCell>
        <mxCell id="gMe8buZzxaM-WdLKkXCs-15" value="Branch" style="html=1;whiteSpace=wrap;" vertex="1" parent="1">
          <mxGeometry x="1162.5" y="375" width="110" height="50" as="geometry" />
        </mxCell>
        <mxCell id="gMe8buZzxaM-WdLKkXCs-16" value="Employee" style="html=1;whiteSpace=wrap;" vertex="1" parent="1">
          <mxGeometry x="1718.75" y="375" width="110" height="50" as="geometry" />
        </mxCell>
        <mxCell id="gMe8buZzxaM-WdLKkXCs-17" value="" style="shape=link;html=1;rounded=0;exitX=1;exitY=0.5;exitDx=0;exitDy=0;entryX=0;entryY=0.5;entryDx=0;entryDy=0;" edge="1" parent="1" source="gMe8buZzxaM-WdLKkXCs-15" target="gMe8buZzxaM-WdLKkXCs-19">
          <mxGeometry relative="1" as="geometry">
            <mxPoint x="1176.25" y="485" as="sourcePoint" />
            <mxPoint x="1336.25" y="485" as="targetPoint" />
          </mxGeometry>
        </mxCell>
        <mxCell id="gMe8buZzxaM-WdLKkXCs-18" value="1" style="resizable=0;html=1;whiteSpace=wrap;align=right;verticalAlign=bottom;" connectable="0" vertex="1" parent="gMe8buZzxaM-WdLKkXCs-17">
          <mxGeometry x="1" relative="1" as="geometry" />
        </mxCell>
        <mxCell id="gMe8buZzxaM-WdLKkXCs-19" value="Manage" style="shape=rhombus;perimeter=rhombusPerimeter;whiteSpace=wrap;html=1;align=center;" vertex="1" parent="1">
          <mxGeometry x="1388.75" y="375" width="120" height="50" as="geometry" />
        </mxCell>
        <mxCell id="gMe8buZzxaM-WdLKkXCs-20" value="" style="endArrow=none;html=1;rounded=0;entryX=1;entryY=0.5;entryDx=0;entryDy=0;exitX=0;exitY=0.5;exitDx=0;exitDy=0;" edge="1" parent="1" source="gMe8buZzxaM-WdLKkXCs-16" target="gMe8buZzxaM-WdLKkXCs-19">
          <mxGeometry relative="1" as="geometry">
            <mxPoint x="1663.75" y="475" as="sourcePoint" />
            <mxPoint x="1499.75" y="470" as="targetPoint" />
          </mxGeometry>
        </mxCell>
        <mxCell id="gMe8buZzxaM-WdLKkXCs-21" value="1" style="resizable=0;html=1;whiteSpace=wrap;align=right;verticalAlign=bottom;" connectable="0" vertex="1" parent="gMe8buZzxaM-WdLKkXCs-20">
          <mxGeometry x="1" relative="1" as="geometry" />
        </mxCell>
        <mxCell id="gMe8buZzxaM-WdLKkXCs-22" value="Employee" style="html=1;whiteSpace=wrap;" vertex="1" parent="1">
          <mxGeometry x="1160" y="540" width="110" height="50" as="geometry" />
        </mxCell>
        <mxCell id="gMe8buZzxaM-WdLKkXCs-23" value="Server" style="shape=rhombus;perimeter=rhombusPerimeter;whiteSpace=wrap;html=1;align=center;" vertex="1" parent="1">
          <mxGeometry x="1410" y="540" width="120" height="60" as="geometry" />
        </mxCell>
        <mxCell id="gMe8buZzxaM-WdLKkXCs-24" value="" style="endArrow=none;html=1;rounded=0;entryX=1;entryY=0.5;entryDx=0;entryDy=0;" edge="1" parent="1" source="gMe8buZzxaM-WdLKkXCs-23" target="gMe8buZzxaM-WdLKkXCs-22">
          <mxGeometry width="50" height="50" relative="1" as="geometry">
            <mxPoint x="1086.25" y="654.5" as="sourcePoint" />
            <mxPoint x="1177.25" y="602.5" as="targetPoint" />
          </mxGeometry>
        </mxCell>
        <mxCell id="gMe8buZzxaM-WdLKkXCs-25" value="" style="endArrow=none;html=1;rounded=0;entryX=1;entryY=0.5;entryDx=0;entryDy=0;exitX=0;exitY=0.5;exitDx=0;exitDy=0;" edge="1" parent="1" source="gMe8buZzxaM-WdLKkXCs-28" target="gMe8buZzxaM-WdLKkXCs-23">
          <mxGeometry width="50" height="50" relative="1" as="geometry">
            <mxPoint x="1212.75" y="767.5" as="sourcePoint" />
            <mxPoint x="1218" y="702.5" as="targetPoint" />
          </mxGeometry>
        </mxCell>
        <mxCell id="gMe8buZzxaM-WdLKkXCs-26" value="1" style="text;html=1;align=center;verticalAlign=middle;resizable=0;points=[];autosize=1;strokeColor=none;fillColor=none;" vertex="1" parent="1">
          <mxGeometry x="1380" y="540" width="30" height="30" as="geometry" />
        </mxCell>
        <mxCell id="gMe8buZzxaM-WdLKkXCs-27" value="n" style="text;html=1;align=center;verticalAlign=middle;resizable=0;points=[];autosize=1;strokeColor=none;fillColor=none;" vertex="1" parent="1">
          <mxGeometry x="1540" y="545" width="30" height="30" as="geometry" />
        </mxCell>
        <mxCell id="gMe8buZzxaM-WdLKkXCs-28" value="Customer" style="html=1;whiteSpace=wrap;" vertex="1" parent="1">
          <mxGeometry x="1730" y="545" width="110" height="50" as="geometry" />
        </mxCell>
        <mxCell id="gMe8buZzxaM-WdLKkXCs-29" value="&lt;span style=&quot;text-wrap-mode: wrap;&quot;&gt;Branch(&lt;/span&gt;&lt;u&gt;Name &lt;/u&gt;(PK), Address (No, Street, District, City, Region), Email, Phone(s), Fax(s), NumOfEmp)" style="text;html=1;align=center;verticalAlign=middle;resizable=0;points=[];autosize=1;strokeColor=none;fillColor=none;" vertex="1" parent="1">
          <mxGeometry x="2020" y="110" width="560" height="30" as="geometry" />
        </mxCell>
        <mxCell id="gMe8buZzxaM-WdLKkXCs-30" value="&lt;span style=&quot;text-wrap-mode: wrap;&quot;&gt;Employee(&lt;u&gt;Emp&lt;/u&gt;&lt;/span&gt;&lt;u&gt;Code &lt;/u&gt;(PK), FName, LName, DOB, Address (No, Street, District, City), Email, Phone,Name(PK))" style="text;html=1;align=center;verticalAlign=middle;resizable=0;points=[];autosize=1;strokeColor=none;fillColor=none;" vertex="1" parent="1">
          <mxGeometry x="2020" y="215" width="610" height="30" as="geometry" />
        </mxCell>
        <mxCell id="gMe8buZzxaM-WdLKkXCs-31" value="&lt;span style=&quot;text-wrap-mode: wrap;&quot;&gt;Customer(&lt;u&gt;Cus&lt;/u&gt;&lt;/span&gt;&lt;u&gt;Code &lt;/u&gt;(PK), FName, LName, HomeAddress, OfficeAddress, Email, Phone,&lt;u style=&quot;&quot;&gt;EmpCode(FK)&lt;/u&gt;)" style="text;html=1;align=center;verticalAlign=middle;resizable=0;points=[];autosize=1;strokeColor=none;fillColor=none;" vertex="1" parent="1">
          <mxGeometry x="2020" y="300" width="570" height="30" as="geometry" />
        </mxCell>
        <mxCell id="gMe8buZzxaM-WdLKkXCs-32" value="&lt;span style=&quot;text-wrap-mode: wrap;&quot;&gt;Account(&lt;/span&gt;&lt;u&gt;Number &lt;/u&gt;(PK),CusCode(FK))" style="text;html=1;align=center;verticalAlign=middle;resizable=0;points=[];autosize=1;strokeColor=none;fillColor=none;" vertex="1" parent="1">
          <mxGeometry x="2020" y="390" width="220" height="30" as="geometry" />
        </mxCell>
        <mxCell id="gMe8buZzxaM-WdLKkXCs-33" value="SavingAccount(&lt;span style=&quot;background-color: transparent; color: light-dark(rgb(0, 0, 0), rgb(255, 255, 255));&quot;&gt;Balance,&lt;/span&gt;&lt;span style=&quot;background-color: transparent; color: light-dark(rgb(0, 0, 0), rgb(255, 255, 255));&quot;&gt;InterestRate,&lt;/span&gt;&lt;span style=&quot;background-color: transparent; color: light-dark(rgb(0, 0, 0), rgb(255, 255, 255));&quot;&gt;OpenedDate,Number(FK))&lt;/span&gt;" style="text;html=1;align=center;verticalAlign=middle;resizable=0;points=[];autosize=1;strokeColor=none;fillColor=none;" vertex="1" parent="1">
          <mxGeometry x="2020" y="432" width="360" height="30" as="geometry" />
        </mxCell>
        <mxCell id="gMe8buZzxaM-WdLKkXCs-34" value="CheckingAccount(&lt;span style=&quot;color: light-dark(rgb(0, 0, 0), rgb(255, 255, 255)); background-color: transparent;&quot;&gt;Balance&lt;/span&gt;&lt;span style=&quot;color: light-dark(rgb(0, 0, 0), rgb(255, 255, 255)); background-color: transparent;&quot;&gt;,&lt;/span&gt;&lt;span style=&quot;color: light-dark(rgb(0, 0, 0), rgb(255, 255, 255)); background-color: transparent;&quot;&gt;OpenedDate,Number(FK)&lt;/span&gt;)" style="text;html=1;align=center;verticalAlign=middle;resizable=0;points=[];autosize=1;strokeColor=none;fillColor=none;" vertex="1" parent="1">
          <mxGeometry x="2020" y="482" width="310" height="30" as="geometry" />
        </mxCell>
        <mxCell id="gMe8buZzxaM-WdLKkXCs-35" value="Loan(&lt;span style=&quot;color: light-dark(rgb(0, 0, 0), rgb(255, 255, 255)); background-color: transparent;&quot;&gt;BalanceDue,&lt;/span&gt;&lt;span style=&quot;color: light-dark(rgb(0, 0, 0), rgb(255, 255, 255)); background-color: transparent;&quot;&gt;InterestRate,Taken&lt;/span&gt;&lt;span style=&quot;color: light-dark(rgb(0, 0, 0), rgb(255, 255, 255)); background-color: transparent;&quot;&gt;Date,Number(FK)&lt;/span&gt;)" style="text;html=1;align=center;verticalAlign=middle;resizable=0;points=[];autosize=1;strokeColor=none;fillColor=none;" vertex="1" parent="1">
          <mxGeometry x="2020" y="532" width="320" height="30" as="geometry" />
        </mxCell>
        <mxCell id="gMe8buZzxaM-WdLKkXCs-36" value="" style="endArrow=classic;html=1;rounded=0;exitX=0.809;exitY=0.9;exitDx=0;exitDy=0;exitPerimeter=0;entryX=0.405;entryY=1.041;entryDx=0;entryDy=0;entryPerimeter=0;" edge="1" parent="1" source="gMe8buZzxaM-WdLKkXCs-35" target="gMe8buZzxaM-WdLKkXCs-32">
          <mxGeometry width="50" height="50" relative="1" as="geometry">
            <mxPoint x="2350" y="537" as="sourcePoint" />
            <mxPoint x="2410" y="412" as="targetPoint" />
            <Array as="points">
              <mxPoint x="2279" y="572" />
              <mxPoint x="2410" y="572" />
              <mxPoint x="2410" y="432" />
              <mxPoint x="2110" y="432" />
            </Array>
          </mxGeometry>
        </mxCell>
        <mxCell id="gMe8buZzxaM-WdLKkXCs-37" value="" style="endArrow=none;html=1;rounded=0;exitX=0.804;exitY=0.937;exitDx=0;exitDy=0;exitPerimeter=0;" edge="1" parent="1" source="gMe8buZzxaM-WdLKkXCs-34">
          <mxGeometry width="50" height="50" relative="1" as="geometry">
            <mxPoint x="2360" y="532" as="sourcePoint" />
            <mxPoint x="2410" y="522" as="targetPoint" />
            <Array as="points">
              <mxPoint x="2270" y="522" />
            </Array>
          </mxGeometry>
        </mxCell>
        <mxCell id="gMe8buZzxaM-WdLKkXCs-38" value="" style="endArrow=none;html=1;rounded=0;" edge="1" parent="1">
          <mxGeometry width="50" height="50" relative="1" as="geometry">
            <mxPoint x="2310" y="465" as="sourcePoint" />
            <mxPoint x="2410" y="472" as="targetPoint" />
            <Array as="points">
              <mxPoint x="2311" y="472" />
            </Array>
          </mxGeometry>
        </mxCell>
        <mxCell id="gMe8buZzxaM-WdLKkXCs-39" value="" style="endArrow=classic;html=1;rounded=0;exitX=0.736;exitY=-0.004;exitDx=0;exitDy=0;exitPerimeter=0;" edge="1" parent="1" source="gMe8buZzxaM-WdLKkXCs-32">
          <mxGeometry width="50" height="50" relative="1" as="geometry">
            <mxPoint x="2361.19" y="384.55999999999995" as="sourcePoint" />
            <mxPoint x="2113" y="330" as="targetPoint" />
            <Array as="points">
              <mxPoint x="2180" y="370" />
              <mxPoint x="2270" y="370" />
              <mxPoint x="2270" y="340" />
              <mxPoint x="2220" y="340" />
            </Array>
          </mxGeometry>
        </mxCell>
        <mxCell id="gMe8buZzxaM-WdLKkXCs-40" value="" style="endArrow=classic;html=1;rounded=0;exitX=0.944;exitY=0.152;exitDx=0;exitDy=0;exitPerimeter=0;entryX=0.142;entryY=0.911;entryDx=0;entryDy=0;entryPerimeter=0;" edge="1" parent="1" source="gMe8buZzxaM-WdLKkXCs-31" target="gMe8buZzxaM-WdLKkXCs-30">
          <mxGeometry width="50" height="50" relative="1" as="geometry">
            <mxPoint x="2370" y="260" as="sourcePoint" />
            <mxPoint x="2300" y="237" as="targetPoint" />
            <Array as="points">
              <mxPoint x="2560" y="260" />
              <mxPoint x="2107" y="260" />
            </Array>
          </mxGeometry>
        </mxCell>
        <mxCell id="gMe8buZzxaM-WdLKkXCs-41" value="" style="endArrow=classic;html=1;rounded=0;entryX=0.127;entryY=1.041;entryDx=0;entryDy=0;entryPerimeter=0;" edge="1" parent="1" target="gMe8buZzxaM-WdLKkXCs-29">
          <mxGeometry width="50" height="50" relative="1" as="geometry">
            <mxPoint x="2580" y="210" as="sourcePoint" />
            <mxPoint x="2090" y="195" as="targetPoint" />
            <Array as="points">
              <mxPoint x="2580" y="160" />
              <mxPoint x="2091" y="160" />
            </Array>
          </mxGeometry>
        </mxCell>
        <mxCell id="gMe8buZzxaM-WdLKkXCs-42" value="&lt;div&gt;BRANCHPHONE(BraName, Phone)&lt;/div&gt;" style="text;html=1;align=center;verticalAlign=middle;resizable=0;points=[];autosize=1;strokeColor=none;fillColor=none;" vertex="1" parent="1">
          <mxGeometry x="2020" y="165" width="220" height="30" as="geometry" />
        </mxCell>
        <mxCell id="gMe8buZzxaM-WdLKkXCs-43" value="BRANCHFAX(BraName, Fax)" style="text;html=1;align=center;verticalAlign=middle;resizable=0;points=[];autosize=1;strokeColor=none;fillColor=none;" vertex="1" parent="1">
          <mxGeometry x="2020" y="195" width="180" height="30" as="geometry" />
        </mxCell>
        <mxCell id="gMe8buZzxaM-WdLKkXCs-44" value="&lt;div&gt;EMPLOYEEPHONE(EmpCode, Phone)&lt;/div&gt;" style="text;html=1;align=center;verticalAlign=middle;resizable=0;points=[];autosize=1;strokeColor=none;fillColor=none;" vertex="1" parent="1">
          <mxGeometry x="2020" y="270" width="230" height="30" as="geometry" />
        </mxCell>
        <mxCell id="gMe8buZzxaM-WdLKkXCs-45" value="CUSTOMERPHONE(CusCode, Phone)" style="text;html=1;align=center;verticalAlign=middle;resizable=0;points=[];autosize=1;strokeColor=none;fillColor=none;" vertex="1" parent="1">
          <mxGeometry x="2020" y="340" width="230" height="30" as="geometry" />
        </mxCell>
        <mxCell id="gMe8buZzxaM-WdLKkXCs-46" value="&lt;font style=&quot;font-size: 18px;&quot;&gt;Cớ sở dữ liệu mức lý luận&lt;/font&gt;" style="text;html=1;align=center;verticalAlign=middle;resizable=0;points=[];autosize=1;strokeColor=none;fillColor=none;" vertex="1" parent="1">
          <mxGeometry x="2115" y="613" width="230" height="40" as="geometry" />
        </mxCell>
      </root>
    </mxGraphModel>
  </diagram>
</mxfile>
